<svg version="1.1" viewBox="0 0 400 400" xmlns="http://www.w3.org/2000/svg" xmlns:xlink="http://www.w3.org/1999/xlink"><defs><g class="white rook" fill="#fff" fill-rule="evenodd" id="white-rook" stroke="#000" stroke-linecap="round" stroke-linejoin="round" stroke-width="1.5"><path d="M9 39h27v-3H9v3zM12 36v-4h21v4H12zM11 14V9h4v2h5V9h5v2h5V9h4v5" stroke-linecap="butt" /><path d="M34 14l-3 3H14l-3-3" /><path d="M31 17v12.5H14V17" stroke-linecap="butt" stroke-linejoin="miter" /><path d="M31 29.5l1.5 2.5h-20l1.5-2.5" /><path d="M11 14h23" fill="none" stroke-linejoin="miter" /></g><g id="xx"><path d="M35.865 9.135a1.89 1.89 0 0 1 0 2.673L25.173 22.5l10.692 10.692a1.89 1.89 0 0 1 0 2.673 1.89 1.89 0 0 1-2.673 0L22.5 25.173 11.808 35.865a1.89 1.89 0 0 1-2.673 0 1.89 1.89 0 0 1 0-2.673L19.827 22.5 9.135 11.808a1.89 1.89 0 0 1 0-2.673 1.89 1.89 0 0 1 2.673 0L22.5 19.827 33.192 9.135a1.89 1.89 0 0 1 2.673 0z" fill="#000" stroke="#fff" stroke-width="1.688" /></g></defs><rect class="square dark a1" fill="#d18b47" height="45" stroke="none" width="45" x="20" y="335" /><rect class="square light b1" fill="#ffce9e" height="45" stroke="none" width="45" x="65" y="335" /><rect class="square dark c1" fill="#d18b47" height="45" stroke="none" width="45" x="110" y="335" /><rect class="square light d1" fill="#ffce9e" height="45" stroke="none" width="45" x="155" y="335" /><use x="155" xlink:href="#xx" y="335" /><rect class="square dark e1" fill="#d18b47" height="45" stroke="none" width="45" x="200" y="335" /><rect class="square light f1" fill="#ffce9e" height="45" stroke="none" width="45" x="245" y="335" /><rect class="square dark g1" fill="#d18b47" height="45" stroke="none" width="45" x="290" y="335" /><rect class="square light h1" fill="#ffce9e" height="45" stroke="none" width="45" x="335" y="335" /><rect class="square light a2" fill="#ffce9e" height="45" stroke="none" width="45" x="20" y="290" /><rect class="square dark b2" fill="#d18b47" height="45" stroke="none" width="45" x="65" y="290" /><rect class="square light c2" fill="#ffce9e" height="45" stroke="none" width="45" x="110" y="290" /><rect class="square dark d2" fill="#d18b47" height="45" stroke="none" width="45" x="155" y="290" /><use x="155" xlink:href="#xx" y="290" /><rect class="square light e2" fill="#ffce9e" height="45" stroke="none" width="45" x="200" y="290" /><rect class="square dark f2" fill="#d18b47" height="45" stroke="none" width="45" x="245" y="290" /><rect class="square light g2" fill="#ffce9e" height="45" stroke="none" width="45" x="290" y="290" /><rect class="square dark h2" fill="#d18b47" height="45" stroke="none" width="45" x="335" y="290" /><rect class="square dark a3" fill="#d18b47" height="45" stroke="none" width="45" x="20" y="245" /><rect class="square light b3" fill="#ffce9e" height="45" stroke="none" width="45" x="65" y="245" /><rect class="square dark c3" fill="#d18b47" height="45" stroke="none" width="45" x="110" y="245" /><rect class="square light d3" fill="#ffce9e" height="45" stroke="none" width="45" x="155" y="245" /><use x="155" xlink:href="#xx" y="245" /><rect class="square dark e3" fill="#d18b47" height="45" stroke="none" width="45" x="200" y="245" /><rect class="square light f3" fill="#ffce9e" height="45" stroke="none" width="45" x="245" y="245" /><rect class="square dark g3" fill="#d18b47" height="45" stroke="none" width="45" x="290" y="245" /><rect class="square light h3" fill="#ffce9e" height="45" stroke="none" width="45" x="335" y="245" /><rect class="square light a4" fill="#ffce9e" height="45" stroke="none" width="45" x="20" y="200" /><rect class="square dark b4" fill="#d18b47" height="45" stroke="none" width="45" x="65" y="200" /><rect class="square light c4" fill="#ffce9e" height="45" stroke="none" width="45" x="110" y="200" /><rect class="square dark d4" fill="#d18b47" height="45" stroke="none" width="45" x="155" y="200" /><use x="155" xlink:href="#xx" y="200" /><rect class="square light e4" fill="#ffce9e" height="45" stroke="none" width="45" x="200" y="200" /><rect class="square dark f4" fill="#d18b47" height="45" stroke="none" width="45" x="245" y="200" /><rect class="square light g4" fill="#ffce9e" height="45" stroke="none" width="45" x="290" y="200" /><rect class="square dark h4" fill="#d18b47" height="45" stroke="none" width="45" x="335" y="200" /><rect class="square dark a5" fill="#d18b47" height="45" stroke="none" width="45" x="20" y="155" /><use x="20" xlink:href="#xx" y="155" /><rect class="square light b5" fill="#ffce9e" height="45" stroke="none" width="45" x="65" y="155" /><use x="65" xlink:href="#xx" y="155" /><rect class="square dark c5" fill="#d18b47" height="45" stroke="none" width="45" x="110" y="155" /><use x="110" xlink:href="#xx" y="155" /><rect class="square light d5" fill="#ffce9e" height="45" stroke="none" width="45" x="155" y="155" /><use transform="translate(155, 155)" xlink:href="#white-rook" /><rect class="square dark e5" fill="#d18b47" height="45" stroke="none" width="45" x="200" y="155" /><use x="200" xlink:href="#xx" y="155" /><rect class="square light f5" fill="#ffce9e" height="45" stroke="none" width="45" x="245" y="155" /><use x="245" xlink:href="#xx" y="155" /><rect class="square dark g5" fill="#d18b47" height="45" stroke="none" width="45" x="290" y="155" /><use x="290" xlink:href="#xx" y="155" /><rect class="square light h5" fill="#ffce9e" height="45" stroke="none" width="45" x="335" y="155" /><use x="335" xlink:href="#xx" y="155" /><rect class="square light a6" fill="#ffce9e" height="45" stroke="none" width="45" x="20" y="110" /><rect class="square dark b6" fill="#d18b47" height="45" stroke="none" width="45" x="65" y="110" /><rect class="square light c6" fill="#ffce9e" height="45" stroke="none" width="45" x="110" y="110" /><rect class="square dark d6" fill="#d18b47" height="45" stroke="none" width="45" x="155" y="110" /><use x="155" xlink:href="#xx" y="110" /><rect class="square light e6" fill="#ffce9e" height="45" stroke="none" width="45" x="200" y="110" /><rect class="square dark f6" fill="#d18b47" height="45" stroke="none" width="45" x="245" y="110" /><rect class="square light g6" fill="#ffce9e" height="45" stroke="none" width="45" x="290" y="110" /><rect class="square dark h6" fill="#d18b47" height="45" stroke="none" width="45" x="335" y="110" /><rect class="square dark a7" fill="#d18b47" height="45" stroke="none" width="45" x="20" y="65" /><rect class="square light b7" fill="#ffce9e" height="45" stroke="none" width="45" x="65" y="65" /><rect class="square dark c7" fill="#d18b47" height="45" stroke="none" width="45" x="110" y="65" /><rect class="square light d7" fill="#ffce9e" height="45" stroke="none" width="45" x="155" y="65" /><use x="155" xlink:href="#xx" y="65" /><rect class="square dark e7" fill="#d18b47" height="45" stroke="none" width="45" x="200" y="65" /><rect class="square light f7" fill="#ffce9e" height="45" stroke="none" width="45" x="245" y="65" /><rect class="square dark g7" fill="#d18b47" height="45" stroke="none" width="45" x="290" y="65" /><rect class="square light h7" fill="#ffce9e" height="45" stroke="none" width="45" x="335" y="65" /><rect class="square light a8" fill="#ffce9e" height="45" stroke="none" width="45" x="20" y="20" /><rect class="square dark b8" fill="#d18b47" height="45" stroke="none" width="45" x="65" y="20" /><rect class="square light c8" fill="#ffce9e" height="45" stroke="none" width="45" x="110" y="20" /><rect class="square dark d8" fill="#d18b47" height="45" stroke="none" width="45" x="155" y="20" /><use x="155" xlink:href="#xx" y="20" /><rect class="square light e8" fill="#ffce9e" height="45" stroke="none" width="45" x="200" y="20" /><rect class="square dark f8" fill="#d18b47" height="45" stroke="none" width="45" x="245" y="20" /><rect class="square light g8" fill="#ffce9e" height="45" stroke="none" width="45" x="290" y="20" /><rect class="square dark h8" fill="#d18b47" height="45" stroke="none" width="45" x="335" y="20" /><text alignment-baseline="middle" font-size="14" text-anchor="middle" x="42" y="10">a</text><text alignment-baseline="middle" font-size="14" text-anchor="middle" x="42" y="390">a</text><text alignment-baseline="middle" font-size="14" text-anchor="middle" x="87" y="10">b</text><text alignment-baseline="middle" font-size="14" text-anchor="middle" x="87" y="390">b</text><text alignment-baseline="middle" font-size="14" text-anchor="middle" x="132" y="10">c</text><text alignment-baseline="middle" font-size="14" text-anchor="middle" x="132" y="390">c</text><text alignment-baseline="middle" font-size="14" text-anchor="middle" x="177" y="10">d</text><text alignment-baseline="middle" font-size="14" text-anchor="middle" x="177" y="390">d</text><text alignment-baseline="middle" font-size="14" text-anchor="middle" x="222" y="10">e</text><text alignment-baseline="middle" font-size="14" text-anchor="middle" x="222" y="390">e</text><text alignment-baseline="middle" font-size="14" text-anchor="middle" x="267" y="10">f</text><text alignment-baseline="middle" font-size="14" text-anchor="middle" x="267" y="390">f</text><text alignment-baseline="middle" font-size="14" text-anchor="middle" x="312" y="10">g</text><text alignment-baseline="middle" font-size="14" text-anchor="middle" x="312" y="390">g</text><text alignment-baseline="middle" font-size="14" text-anchor="middle" x="357" y="10">h</text><text alignment-baseline="middle" font-size="14" text-anchor="middle" x="357" y="390">h</text><text alignment-baseline="middle" font-size="14" text-anchor="middle" x="10" y="357">1</text><text alignment-baseline="middle" font-size="14" text-anchor="middle" x="390" y="357">1</text><text alignment-baseline="middle" font-size="14" text-anchor="middle" x="10" y="312">2</text><text alignment-baseline="middle" font-size="14" text-anchor="middle" x="390" y="312">2</text><text alignment-baseline="middle" font-size="14" text-anchor="middle" x="10" y="267">3</text><text alignment-baseline="middle" font-size="14" text-anchor="middle" x="390" y="267">3</text><text alignment-baseline="middle" font-size="14" text-anchor="middle" x="10" y="222">4</text><text alignment-baseline="middle" font-size="14" text-anchor="middle" x="390" y="222">4</text><text alignment-baseline="middle" font-size="14" text-anchor="middle" x="10" y="177">5</text><text alignment-baseline="middle" font-size="14" text-anchor="middle" x="390" y="177">5</text><text alignment-baseline="middle" font-size="14" text-anchor="middle" x="10" y="132">6</text><text alignment-baseline="middle" font-size="14" text-anchor="middle" x="390" y="132">6</text><text alignment-baseline="middle" font-size="14" text-anchor="middle" x="10" y="87">7</text><text alignment-baseline="middle" font-size="14" text-anchor="middle" x="390" y="87">7</text><text alignment-baseline="middle" font-size="14" text-anchor="middle" x="10" y="42">8</text><text alignment-baseline="middle" font-size="14" text-anchor="middle" x="390" y="42">8</text></svg>